<?xml version="1.0" standalone="no"?>
<!DOCTYPE svg PUBLIC "-//W3C//DTD SVG 20010904//EN"
 "http://www.w3.org/TR/2001/REC-SVG-20010904/DTD/svg10.dtd">
<svg version="1.0" xmlns="http://www.w3.org/2000/svg"
 width="900.000000pt" height="900.000000pt" viewBox="0 0 900.000000 900.000000"
 preserveAspectRatio="xMidYMid meet">

<g transform="translate(0.000000,900.000000) scale(0.100000,-0.100000)"
fill="#000000" stroke="none">
<path d="M4251 8989 c-976 -55 -1876 -412 -2644 -1047 -215 -177 -502 -479
-686 -721 -952 -1253 -1181 -2911 -604 -4371 412 -1044 1198 -1895 2208 -2390
1063 -521 2287 -600 3416 -220 1007 339 1862 1027 2417 1947 452 750 680 1655
634 2522 -35 646 -178 1205 -452 1766 -794 1624 -2487 2617 -4289 2514z m574
-329 c1167 -99 2207 -649 2929 -1550 93 -116 196 -255 196 -265 0 -3 -147 -5
-327 -5 l-328 -1 -74 -164 c-47 -106 -78 -162 -85 -158 -6 4 -106 78 -223 165
l-212 158 -507 0 -507 0 -454 -340 -453 -340 0 -1783 0 -1784 446 -326 446
-327 1052 0 c579 0 1055 -3 1059 -6 16 -17 -292 -355 -468 -514 -311 -281
-579 -465 -945 -649 -439 -222 -867 -350 -1385 -418 -201 -26 -769 -26 -970 0
-506 66 -932 193 -1365 408 -453 225 -842 514 -1191 884 -113 120 -239 270
-239 284 0 8 348 11 1153 11 l1153 0 446 322 447 323 1 1790 0 1791 -450 334
-449 335 -1237 5 -1236 5 57 80 c189 264 533 628 785 829 146 117 386 280 544
371 521 298 1127 485 1726 534 151 12 525 12 665 1z m3554 -2620 c134 -341
218 -669 268 -1055 26 -201 26 -769 0 -970 -50 -387 -134 -716 -268 -1057 -51
-128 -232 -502 -263 -543 -14 -18 -15 43 -16 618 l0 637 -580 0 -580 0 0 -321
0 -320 -297 3 c-284 3 -301 5 -356 27 -116 46 -219 171 -246 299 -8 37 -11
359 -11 1087 l0 1034 -155 112 c-86 61 -158 116 -161 120 -3 5 269 9 610 9
l616 0 0 -350 0 -350 533 0 533 0 102 668 c57 367 106 674 109 682 7 19 95
-160 162 -330z m-7580 -290 l210 -145 0 -1690 0 -1690 -24 30 c-38 46 -178
296 -249 445 -200 419 -322 844 -383 1330 -25 206 -25 734 0 940 35 281 92
548 168 787 45 141 47 145 59 141 5 -2 104 -68 219 -148z m2101 -57 c120 -49
213 -150 250 -271 19 -62 20 -96 20 -1047 0 -951 -1 -985 -20 -1046 -38 -122
-131 -223 -252 -272 -49 -20 -73 -22 -350 -25 l-298 -3 0 1225 0 1225 -155
111 c-85 62 -158 116 -161 121 -4 6 166 9 453 7 448 -3 459 -3 513 -25z"/>
</g>
</svg>
